<?xml version="1.0" encoding="UTF-8" standalone="no"?>
<svg
   id="Layer_1"
   data-name="Layer 1"
   viewBox="0 0 99.999997 100"
   version="1.1"
   sodipodi:docname="clic_arrow.svg"
   width="100"
   height="100.00001"
   inkscape:version="1.3 (0e150ed6c4, 2023-07-21)"
   xmlns:inkscape="http://www.inkscape.org/namespaces/inkscape"
   xmlns:sodipodi="http://sodipodi.sourceforge.net/DTD/sodipodi-0.dtd"
   xmlns="http://www.w3.org/2000/svg"
   xmlns:svg="http://www.w3.org/2000/svg"
   xmlns:rdf="http://www.w3.org/1999/02/22-rdf-syntax-ns#"
   xmlns:cc="http://creativecommons.org/ns#"
   xmlns:dc="http://purl.org/dc/elements/1.1/">
   <metadata
      id="metadata33">
      <rdf:RDF>
         <cc:Work
            rdf:about="">
            <dc:format>image/svg+xml</dc:format>
            <dc:type
               rdf:resource="http://purl.org/dc/dcmitype/StillImage" />
            <dc:title>clic_color</dc:title>
         </cc:Work>
      </rdf:RDF>
   </metadata>
   <sodipodi:namedview
      pagecolor="#c2c2c2"
      bordercolor="#666666"
      borderopacity="1"
      objecttolerance="10"
      gridtolerance="10"
      guidetolerance="10"
      inkscape:pageopacity="0"
      inkscape:pageshadow="2"
      inkscape:window-width="1920"
      inkscape:window-height="1052"
      id="namedview31"
      showgrid="false"
      inkscape:zoom="5.6932034"
      inkscape:cx="38.642568"
      inkscape:cy="56.558668"
      inkscape:window-x="0"
      inkscape:window-y="0"
      inkscape:window-maximized="1"
      inkscape:current-layer="Layer_1"
      fit-margin-top="0"
      fit-margin-left="0"
      fit-margin-right="0"
      fit-margin-bottom="0"
      inkscape:pagecheckerboard="0"
      inkscape:showpageshadow="0"
      inkscape:deskcolor="#d1d1d1" />
   <defs
      id="defs4">
   </defs>
   <title
      id="title6">clic_color</title>
   <g
      id="g831"
      transform="translate(-522.21241,-48.851897)"
      style="stroke:#ffffff;stroke-width:10.8283;stroke-miterlimit:4;stroke-dasharray:none">
      <path
         style="fill:#ffffff;stroke:none;stroke-width:10.8283;-inkscape-stroke:none"
         d="m 582.36781,83.94156 a 1.68,1.68 0 0 0 -1.1,0.14 l -44.21,22.48 a 1.66,1.66 0 0 0 -0.88,1.76 1.57,1.57 0 0 0 0.16,0.46 1.64,1.64 0 0 0 1.28,0.89 l 16.51,1.95 a 139.86,139.86 0 0 1 -19.22,20.32 6.4120901,6.4120901 0 0 0 8.2,9.86 149.73,149.73 0 0 0 21,-22.14 l 6.39,12.55 a 1.65,1.65 0 0 0 2.22,0.72 1.63,1.63 0 0 0 0.86,-1.12 l 10.05,-45.91 a 1.65,1.65 0 0 0 -1.26,-1.96 z"
         id="path1730" />
      <path
         style="fill:#ffffff;stroke:none;stroke-width:10.8283;-inkscape-stroke:none"
         d="m 607.19781,67.25156 a 2,2 0 0 0 -2.81,-0.55 l -10.05,6.76 a 2.0218865,2.0218865 0 0 0 2.25,3.36 l 10.06,-6.77 a 2,2 0 0 0 0.55,-2.8 z"
         id="path1715" />
      <path
         style="fill:#ffffff;stroke:none;stroke-width:10.8283;-inkscape-stroke:none"
         d="m 574.70781,69.63156 -6.8,-10.06 a 2.0205259,2.0205259 0 1 0 -3.35,2.26 l 6.76,10 a 2.0177339,2.0177339 0 1 0 3.35,-2.25 z"
         id="path1725" />
      <path
         style="fill:#ffffff;stroke:none;stroke-width:10.8283;-inkscape-stroke:none"
         d="m 599.51781,106.49156 -6.76,-10.05 a 2.0218865,2.0218865 0 0 0 -3.36,2.25 l 6.77,10.05 a 2.0205259,2.0205259 0 1 0 3.35,-2.26 z"
         id="path1700" />
      <path
         style="fill:#ffffff;stroke:none;stroke-width:10.8283;-inkscape-stroke:none"
         d="m 587.13781,68.74156 2.33,-11.9 a 2.0367192,2.0367192 0 0 0 -4,-0.77 l -2.32,11.89 a 2,2 0 0 0 0.31,1.52 2,2 0 0 0 1.28,0.85 2,2 0 0 0 2.4,-1.59 z"
         id="path1720" />
      <path
         style="fill:#ffffff;stroke:none;stroke-width:10.8283;-inkscape-stroke:none"
         d="m 568.17781,81.45156 a 2,2 0 0 0 -1.6,-2.37 l -11.89,-2.34 a 2,2 0 0 0 -2.06,3.11 2,2 0 0 0 1.28,0.89 l 11.89,2.33 a 2,2 0 0 0 2.38,-1.62 z"
         id="path1705" />
      <path
         style="fill:#ffffff;stroke:none;stroke-width:10.8283;-inkscape-stroke:none"
         d="m 611.78781,89.98156 a 2,2 0 0 0 -1.59,-2.37 l -11.9,-2.33 a 2,2 0 0 0 -2.37,1.59 2.05,2.05 0 0 0 0.31,1.52 2,2 0 0 0 1.29,0.85 l 11.89,2.33 a 2,2 0 0 0 2.37,-1.59 z"
         id="path1710" />
   </g>
</svg>